<svg width="130" height="36" viewBox="0 0 130 36" fill="none" xmlns="http://www.w3.org/2000/svg">
<path d="M34.0862 0H28.7821L28.7375 0.0613228L16.5301 16.7648H21.8974L21.9421 16.698L23.1961 14.8099H28.2501L28.0335 16.7654H32.9448L32.9541 16.6246L34.0755 0.161726L34.0862 0ZM28.6375 11.3005H25.5255L29.2602 5.67585L28.6375 11.3005Z" fill="#28415B"/>
<path d="M45.7374 5.85034L45.7747 5.75398L47.0814 2.36182H36.2694L36.2314 2.45683L34.8987 5.85034H38.36L34.0574 16.8928H38.1334L38.1707 16.7964L42.3907 5.85034H45.7374Z" fill="#28415B"/>
<path d="M51.9107 14.2182L51.9901 14.012H47.6027L52.3314 2.36182H48.2048L48.1674 2.45616L42.4301 16.8928H50.8874L50.9241 16.7964L51.9107 14.2182Z" fill="#28415B"/>
<path d="M83.2612 2.36182H79.1583L79.1199 2.45683C79.1095 2.48446 78.0245 5.22232 77.129 7.45476C76.6223 8.71757 76.2804 9.74658 76.0772 10.407C76.0779 10.3888 76.0792 10.3706 76.0798 10.3524C76.1039 9.29914 74.8789 2.76276 74.8268 2.48513L74.8034 2.36182H70.8483L70.8099 2.45683L65.1973 16.64L66.3103 2.52557L66.3227 2.36249H61.7068L61.6621 2.42314L51.0981 16.6508L50.9181 16.8928H55.6421L55.6868 16.8388C55.6954 16.8287 56.5321 15.824 57.2228 14.8739H61.4461C61.4061 15.5632 61.3794 16.1893 61.3661 16.7378L61.3621 16.8873L61.5101 16.8928L65.0234 17.014L65.1667 17.0188L65.1765 16.892H69.1244L69.1622 16.7977C69.1765 16.7613 70.6366 13.1407 71.4826 10.946C71.9203 9.81125 72.2003 8.97566 72.3709 8.4265C72.3677 8.50799 72.3664 8.59157 72.3683 8.67581C72.3807 9.21961 73.325 16.4534 73.3647 16.7613L73.3823 16.8928H77.3407L77.3791 16.7991L83.1746 2.57004L83.2612 2.36182ZM61.6834 11.6772H59.0241C59.1328 11.4777 59.2415 11.2924 59.3575 11.1064C59.8001 10.3982 61.4308 8.07743 62.1441 7.06662C62.0448 7.95071 61.8521 9.7331 61.6834 11.6772Z" fill="#28415B"/>
<path d="M93.4116 5.47031L93.4507 5.38002L94.6998 2.51682H83.788L83.7489 2.60711L82.5897 5.25737L82.4972 5.47031H86.268L81.9632 17.0147H86.0622L86.0993 16.9177L90.4582 5.47031H93.4116Z" fill="#28415B"/>
<path d="M99.837 2.48997H95.5127L95.4756 2.58565L89.837 17.0148H94.1607L94.1985 16.9191L99.837 2.48997Z" fill="#28415B"/>
<path d="M5.07467 16.8356L5.04134 16.9413L0.0613334 32.9857L0 33.1825H10.4913L10.5326 33.0969L12.502 28.9918L5.64333 29.0505L6.59469 26.7647H12.1194L13.7027 23.6947H7.17665L8.43403 20.2877H128.163L129.6 16.8356H5.07467Z" fill="#28415B"/>
<path d="M21.1179 33.1826L21.088 33.0061L20.106 27.1429L24.4339 21.7743L24.6333 21.5277H20.3073L20.264 21.6038L18.6013 24.5378L18.242 21.5277H14.3733L14.412 21.7103L15.5893 27.3154L10.8407 33.1826H15.0379L15.082 33.1118L17.0906 29.9063V33.1826H21.1179Z" fill="#28415B"/>
<path d="M34.4527 22.994C33.9794 22.3282 33.2094 21.9913 32.1647 21.9913C30.2588 21.9913 29.2174 22.7884 28.7327 23.3242L29.4508 21.6463H25.7534L25.7154 21.7406L20.0034 35.9999H23.8641L23.9028 35.907L25.8167 31.2917C26.0874 31.7351 26.8141 32.4441 28.6894 32.4441C29.9307 32.4441 31.1781 31.8713 32.2974 30.7884C33.2827 29.8349 34.1014 28.5236 34.5454 27.19C35.1394 25.4037 35.1068 23.9138 34.4527 22.994ZM30.5761 27.0849C29.8161 28.9663 28.8174 29.3612 28.1134 29.3612C27.6968 29.3612 27.4214 29.254 27.2728 29.0344C27.0328 28.6799 27.1041 27.9966 27.4861 27.0027C28.0348 25.5735 29.0694 24.9225 29.7981 24.9225C30.2281 24.9225 30.5281 25.0465 30.6901 25.2904C30.9315 25.6544 30.8901 26.308 30.5761 27.0849Z" fill="#28415B"/>
<path d="M123.683 23.4037C123.222 22.7528 122.468 22.4225 121.443 22.4225C120.192 22.4225 118.882 23.2083 118.249 23.6833L118.488 22.9778L118.556 22.7777H114.96L114.923 22.8714L109.575 36H113.349L113.388 35.9076L115.253 31.444C115.52 31.8747 116.232 32.5566 118.054 32.5566C119.265 32.5566 120.483 32.002 121.575 30.9522C122.536 30.0283 123.336 28.7574 123.769 27.4657C124.347 25.7379 124.316 24.2958 123.683 23.4037ZM119.89 27.3585C119.151 29.1786 118.178 29.5607 117.492 29.5607C117.085 29.5607 116.817 29.4569 116.673 29.2433C116.442 28.9009 116.512 28.2412 116.884 27.283C117.418 25.901 118.425 25.2709 119.136 25.2709C119.554 25.2709 119.847 25.3909 120.004 25.6281C120.236 25.9799 120.195 26.6099 119.89 27.3585Z" fill="#28415B"/>
<path d="M42.8453 26.1281L44.476 22.058L44.2954 22.0243C44.1067 21.9893 43.914 21.9711 43.722 21.9711C42.4593 21.9711 41.4227 22.7225 40.8307 23.275L41.4266 21.7332L41.5067 21.5271H37.78L33.176 32.9737L33.092 33.182H37.1806L37.2167 33.0829C37.228 33.0512 38.3853 29.8801 39.3654 27.6632C39.962 26.3141 41.132 26.0304 42.0087 26.0304C42.424 26.0304 42.7173 26.0977 42.72 26.0985L42.8453 26.1281Z" fill="#28415B"/>
<path d="M111.507 26.4594C111.884 26.4594 112.152 26.5221 112.154 26.5228L112.28 26.5531L112.328 26.4312L113.78 22.7094L113.602 22.6751C113.429 22.6414 113.251 22.6245 113.074 22.6245C111.938 22.6245 111.002 23.3038 110.453 23.8213L110.72 23.1057L110.796 22.9008H107.36L107.323 22.9965L103.412 32.9749L103.331 33.1818H107.098L107.134 33.0814C107.144 33.0517 108.202 30.0706 109.099 27.9864C109.644 26.7243 110.708 26.4594 111.507 26.4594Z" fill="#28415B"/>
<path d="M49.3466 29.124L49.3099 29.221C49.2986 29.2486 49.0072 29.9367 47.6519 29.9367C47.2146 29.9367 46.9019 29.8235 46.7219 29.6011C46.4339 29.2439 46.4912 28.622 46.5919 28.0876H53.9266L53.9652 27.9946C53.9779 27.9643 54.2732 27.2399 54.4246 26.2797C54.6272 24.994 54.4646 23.9057 53.9546 23.1321C53.3046 22.1463 52.1073 21.647 50.3966 21.647C46.1246 21.647 43.4999 24.8605 42.8493 26.8855C42.5793 27.7271 41.8606 29.9623 42.9026 31.5101C43.5706 32.5027 44.8473 33.0653 46.6966 33.1819C46.7713 33.1866 46.8479 33.1893 46.9252 33.1893C47.9719 33.1893 49.2779 32.7547 50.5079 31.998C51.7359 31.2419 52.7092 30.275 53.1792 29.3443L53.2906 29.124H49.3466ZM49.5446 24.2379C49.9872 24.2379 50.3059 24.3653 50.4906 24.6173C50.7859 25.0196 50.6892 25.6469 50.6346 25.8963H47.3493C47.5519 25.4158 48.1899 24.2379 49.5446 24.2379Z" fill="#28415B"/>
<path d="M61.4293 26.1092L61.424 26.1072L61.418 26.1058C60.5407 25.8841 59.7287 25.5916 59.7287 24.9596C59.7287 24.4603 60.1553 24.2379 61.1114 24.2379C61.4233 24.2379 61.6467 24.3114 61.774 24.4576C61.9007 24.6018 61.946 24.8322 61.9087 25.1409L61.888 25.3107H65.6831L65.7163 25.2035C65.7313 25.1523 66.0836 23.9474 65.3432 22.9373C64.716 22.0809 63.5113 21.6463 61.764 21.6463C57.5507 21.6463 55.6647 23.6166 55.6647 25.5687C55.6647 27.2069 57.218 27.8746 58.466 28.4118C59.3573 28.7951 60.1267 29.126 60.1267 29.6691C60.1267 30.2237 59.5767 30.6111 58.7887 30.6111C58.368 30.6111 58.0673 30.506 57.8947 30.2985C57.7073 30.0728 57.656 29.7089 57.7414 29.217L57.772 29.0391H53.862L53.8254 29.1361C53.804 29.1927 53.3074 30.531 54.082 31.6725C54.762 32.6738 56.186 33.1819 58.3147 33.1819C60.654 33.1819 62.1147 32.3376 62.928 31.6294C63.8587 30.8194 64.4367 29.7439 64.4367 28.8227C64.4387 27.1361 63.176 26.7056 61.4293 26.1092Z" fill="#28415B"/>
<path d="M72.9883 21.6463C68.7747 21.6463 66.8886 23.6166 66.8886 25.5687C66.8886 27.2069 68.4419 27.8746 69.6897 28.4118C70.5812 28.7951 71.3504 29.126 71.3504 29.6691C71.3504 30.2237 70.8007 30.6111 70.0127 30.6111C69.592 30.6111 69.2911 30.506 69.1185 30.2985C68.9316 30.0728 68.8802 29.7089 68.9655 29.217L68.9967 29.0391H65.0873L65.0506 29.1361C65.0293 29.1927 64.5326 30.531 65.3074 31.6725C65.9873 32.6738 67.4116 33.1819 69.5392 33.1819C71.8785 33.1819 73.3393 32.3376 74.1527 31.6294C75.0834 30.8194 75.661 29.7439 75.661 28.8227C75.661 27.1355 74.3996 26.7048 72.6522 26.1085L72.6457 26.1064L72.6399 26.1051C71.7626 25.8834 70.9505 25.591 70.9505 24.9589C70.9505 24.4596 71.3771 24.2372 72.3331 24.2372C72.6457 24.2372 72.8685 24.3106 72.9968 24.4569C73.1231 24.6011 73.1687 24.8315 73.1316 25.1402L73.1107 25.31H76.9069L76.9388 25.2028C76.9538 25.1516 77.3061 23.9468 76.5663 22.9367C75.9398 22.0809 74.7356 21.6463 72.9883 21.6463Z" fill="#28415B"/>
<path d="M123.829 29.0601L123.794 29.1598L122.513 32.6982L122.44 32.9017H125.846L127.235 29.0601H123.829Z" fill="#28415B"/>
<path d="M104.237 23.8306C103.555 22.9735 102.37 22.5389 100.715 22.5389C100.682 22.5389 100.648 22.5389 100.614 22.5396C98.7525 22.5591 96.9362 23.3118 95.5002 24.6575C94.1247 25.9465 93.3067 27.6049 93.2559 29.2067C93.2045 30.8232 93.5366 31.8097 94.3318 32.4054C95.1055 32.9842 96.2563 33.1345 97.747 33.183C97.8154 33.1851 97.8838 33.1864 97.9521 33.1864C99.4585 33.1864 100.954 32.6527 102.162 31.6831C103.462 30.6393 104.348 29.1756 104.723 27.4492C105.063 25.8805 104.9 24.6636 104.237 23.8306ZM100.598 27.8509C100.161 29.0388 99.4826 30.4021 98.098 30.4021C97.7281 30.4021 97.4819 30.3158 97.3458 30.1379C97.0534 29.7558 97.2625 28.9384 97.465 28.1474L97.4911 28.0456C97.8284 26.7248 98.7519 25.3873 99.8642 25.3873C100.312 25.3873 100.622 25.5072 100.784 25.7437C101.042 26.1184 100.981 26.8071 100.598 27.8509Z" fill="#28415B"/>
<path d="M12.262 29.1447L10.3981 33.0308H0.204023L5.18402 16.9864H129.375L128.064 20.1367H8.33005L6.96072 23.8455H13.456L12.0287 26.6131H6.49469L5.41736 29.204L12.262 29.1447Z" fill="#353391"/>
<path d="M11.1559 33.0309H14.9559L17.2405 29.3847V33.0309H20.9406L19.9472 27.1003L24.3179 21.6785H20.3939L18.5066 25.0087L18.1092 21.6785H14.5586L15.7506 27.3551L11.1559 33.0309Z" fill="#353391"/>
<path d="M32.1639 22.1427C29.4132 22.1427 28.5179 23.8665 28.5179 23.8665L28.3612 23.8078L29.2212 21.7977H25.8525L20.2239 35.8489H23.7632L25.8099 30.9136C25.8099 30.9136 26.1086 32.293 28.6879 32.293C31.2672 32.293 33.5492 29.7068 34.4018 27.1421C35.2559 24.5774 34.9145 22.1427 32.1639 22.1427ZM30.7146 27.1421C30.2879 28.198 29.4779 29.5127 28.1132 29.5127C26.7485 29.5127 26.7912 28.3921 27.3459 26.948C27.9005 25.5039 28.9665 24.7714 29.7979 24.7714C31.2472 24.7714 31.1406 26.0862 30.7146 27.1421Z" fill="#353391"/>
<path d="M118.346 22.9292H115.06L109.797 35.849H113.25L115.246 31.0694C115.246 31.0694 115.537 32.4049 118.053 32.4049C120.569 32.4049 122.794 29.9002 123.627 27.4164C124.458 24.9326 124.126 22.5741 121.443 22.5741C120.134 22.5741 118.667 23.502 118.1 23.9953C118.055 24.035 117.987 23.9879 118.006 23.9306L118.346 22.9292ZM120.029 27.4164C119.612 28.4393 118.822 29.7122 117.491 29.7122C116.161 29.7122 116.202 28.6266 116.743 27.2284C117.283 25.8301 118.324 25.1206 119.134 25.1206C120.549 25.1206 120.445 26.3935 120.029 27.4164Z" fill="#353391"/>
<path d="M37.0773 33.0309H33.3159L37.882 21.6785H41.2886L40.4133 23.9427C40.4133 23.9427 42.0926 21.7668 44.2693 22.1732L42.7552 25.9515C42.7552 25.9515 40.2239 25.3537 39.2306 27.6017C38.2359 29.849 37.0773 33.0309 37.0773 33.0309Z" fill="#353391"/>
<path d="M106.993 33.0308H103.55L107.461 23.0525H110.579L110.045 24.4871C110.045 24.4871 111.582 22.4412 113.573 22.8233L112.188 26.3752C112.188 26.3752 109.872 25.8132 108.963 27.9264C108.054 30.0396 106.993 33.0308 106.993 33.0308Z" fill="#353391"/>
<path d="M53.8267 27.9366C53.8267 27.9366 56.358 21.7977 50.3966 21.7977C46.0913 21.7977 43.5833 25.0909 42.992 26.9318C42.4006 28.7728 41.3833 32.6946 46.706 33.0309C48.858 33.1669 52.054 31.2391 53.046 29.2755H49.45C49.45 29.2755 49.1426 30.0888 47.652 30.0888C46.1613 30.0888 46.28 28.8691 46.4693 27.9366H53.8267ZM49.5446 24.0861C51.3426 24.0861 50.7513 26.0471 50.7513 26.0471H47.132C47.132 26.0471 47.7467 24.0861 49.5446 24.0861Z" fill="#353391"/>
<path d="M57.5954 29.1906H53.9667C53.9667 29.1906 52.502 33.0309 58.3161 33.0309C62.3954 33.0309 64.288 30.3921 64.288 28.8233C64.288 27.2546 63.116 26.8449 61.3807 26.2526C60.5693 26.0477 59.5781 25.7398 59.5781 24.9601C59.5781 24.1799 60.4347 24.0868 61.1107 24.0868C61.7867 24.0868 62.1474 24.4076 62.0574 25.1596H65.5731C65.5731 25.1596 66.5871 21.7984 61.7647 21.7984C57.5501 21.7984 55.8147 23.7701 55.8147 25.57C55.8147 28.258 60.2767 28.167 60.2767 29.6704C60.2767 30.3307 59.6453 30.764 58.7894 30.764C57.9334 30.7627 57.3927 30.3523 57.5954 29.1906Z" fill="#353391"/>
<path d="M68.8182 29.1906H65.1901C65.1901 29.1906 63.7252 33.0309 69.5391 33.0309C73.6186 33.0309 75.5112 30.3921 75.5112 28.8233C75.5112 27.2546 74.3389 26.8449 72.6039 26.2526C71.7925 26.0477 70.8013 25.7398 70.8013 24.9601C70.8013 24.1799 71.6577 24.0868 72.3337 24.0868C73.0097 24.0868 73.3705 24.4076 73.2806 25.1596H76.7967C76.7967 25.1596 77.8107 21.7984 72.9875 21.7984C68.7733 21.7984 67.0377 23.7701 67.0377 25.57C67.0377 28.258 71.5001 28.167 71.5001 29.6704C71.5001 30.3307 70.8684 30.764 70.0126 30.764C69.1562 30.764 68.615 30.3523 68.8182 29.1906Z" fill="#353391"/>
<path d="M123.934 29.2116H127.021L125.741 32.75H122.654L123.934 29.2116Z" fill="#353391"/>
<path d="M100.617 22.6907C96.7572 22.7318 93.5081 26.0168 93.4059 29.2115C93.3043 32.4062 94.767 32.9352 97.753 33.0309C100.739 33.1266 103.786 31.0667 104.578 27.4164C105.369 23.7655 103.278 22.6624 100.617 22.6907ZM100.739 27.9036C100.271 29.1752 99.54 30.5532 98.0982 30.5532C96.6563 30.5532 97.0216 29.2803 97.3466 28.0074C97.6716 26.7344 98.6061 25.2358 99.8657 25.2358C101.45 25.2365 101.205 26.6321 100.739 27.9036Z" fill="#353391"/>
<path d="M93.91 18.8293C92.9318 17.4889 91.1246 16.8091 88.5378 16.8091C86.8315 16.8091 85.2235 17.146 83.7582 17.8097C82.3964 18.427 81.1883 19.3097 80.1678 20.435C78.2375 22.563 77.1303 25.4255 77.1303 28.2868C77.1303 29.8602 77.7217 31.152 78.8399 32.0213C79.9399 32.8763 81.5615 33.3279 83.5289 33.3279C85.4866 33.3279 87.4287 32.7227 89.146 31.5785C90.8634 30.4337 92.2395 28.8265 93.1265 26.9296L93.2281 26.7133H88.1079L88.0656 26.7908C88.0519 26.8157 86.6712 29.2578 84.1157 29.2578C83.5061 29.2578 83.0281 29.0051 82.7344 28.5266C82.1952 27.65 82.3424 26.1675 83.1271 24.561C84.4381 21.8777 85.9432 20.6285 87.865 20.6285C88.5508 20.6285 89.049 20.8185 89.344 21.1931C89.7797 21.7457 89.6794 22.555 89.5811 22.9876L89.5387 23.1729H94.4792L94.5124 23.0664C94.5417 22.9694 95.232 20.6412 93.91 18.8293Z" fill="#28415B"/>
<path d="M89.7262 23.0225H94.3677C94.3677 23.0225 96.2231 16.9605 88.537 16.9605C81.5236 16.9605 77.2794 22.7233 77.2794 28.2866C77.2794 31.4052 79.6005 33.1768 83.5282 33.1768C87.4559 33.1768 91.2052 30.6815 92.991 26.8648H88.1951C88.1951 26.8648 86.793 29.41 84.1143 29.41C82.3038 29.41 81.6155 27.3142 82.9929 24.4949C84.3703 21.6755 85.9515 20.4781 87.8649 20.4781C89.777 20.4781 89.9815 21.8999 89.7262 23.0225Z" fill="#353391"/>
<path d="M113.19 4.33228C112.274 3.10991 110.704 2.48997 108.523 2.48997C105.223 2.48997 102.136 3.86125 99.8324 6.35113C97.6995 8.65636 96.4758 11.657 96.4758 14.5836C96.4758 16.2082 97.0671 17.5424 98.186 18.4407C99.2873 19.3255 100.911 19.7931 102.882 19.7931C104.842 19.7931 106.786 19.1671 108.506 17.9831C110.224 16.7992 111.602 15.1375 112.49 13.1759L112.587 12.9616H107.464L107.421 13.0411C107.407 13.0667 106.025 15.5937 103.468 15.5937C102.872 15.5937 102.402 15.343 102.106 14.8686C101.541 13.9637 101.681 12.4151 102.48 10.7264C103.793 7.95082 105.3 6.65771 107.222 6.65771C107.896 6.65771 108.388 6.84779 108.686 7.22245C109.141 7.79589 109.04 8.64896 108.94 9.10583L108.898 9.28982H113.845L113.876 9.17927C113.909 9.0627 114.658 6.29318 113.19 4.33228Z" fill="#28415B"/>
<path d="M28.8579 0.151111L16.8266 16.614H21.8172L23.1153 14.6591H28.4166L28.1999 16.614H32.8039L33.9259 0.151111H28.8579ZM25.2445 11.4522L29.4773 5.07831L28.7719 11.4522H25.2445Z" fill="#353391"/>
<path d="M46.8627 2.51305H36.3707L35.1194 5.69969H38.5793L34.2773 16.7421H38.0313L42.2886 5.69969H45.6353L46.8627 2.51305Z" fill="#353391"/>
<path d="M52.1079 2.51305H48.3059L42.6512 16.7421H50.7846L51.7712 14.164H47.3799L52.1079 2.51305Z" fill="#353391"/>
<path d="M61.7815 2.51305L51.2181 16.7421H55.5734C55.5734 16.7421 56.4441 15.6983 57.1481 14.7232H61.6061C61.5634 15.4321 61.5321 16.1167 61.5168 16.7421L65.0301 16.8634L66.1605 2.51305H61.7815ZM58.7734 11.8291C58.9074 11.5729 59.0528 11.3109 59.2308 11.0265C59.8081 10.1019 62.3587 6.50225 62.3587 6.50225C62.3587 6.50225 62.0635 8.99751 61.8201 11.8291H58.7734Z" fill="#353391"/>
<path d="M69.0246 16.7421H65.3183L70.9491 2.51305H74.6795C74.6795 2.51305 75.9546 9.29873 75.9305 10.3452C75.9064 10.856 75.8635 11.2536 75.8635 11.2536H75.9904C75.9904 11.2536 76.3604 9.76974 77.2669 7.5117C78.1741 5.2536 79.2585 2.51373 79.2585 2.51373H83.037L77.2422 16.7427H73.5144C73.5144 16.7427 72.5316 9.21587 72.5186 8.67338C72.5056 8.13162 72.6332 7.58985 72.6332 7.58985H72.4548C72.4548 7.58985 72.1995 8.67338 71.3437 10.8931C70.4886 13.1114 69.0246 16.7421 69.0246 16.7421Z" fill="#353391"/>
<path d="M94.4699 2.66864H83.8851L82.7265 5.31889H86.4849L82.1801 16.8633H85.9593L90.3546 5.31889H93.3133L94.4699 2.66864Z" fill="#353391"/>
<path d="M94.059 16.8634H90.0564L95.6148 2.64178H99.6168L94.059 16.8634Z" fill="#353391"/>
<path d="M109.085 9.13848H113.732C113.732 9.13848 115.544 2.6412 108.523 2.6412C101.502 2.6412 96.6261 8.82849 96.6261 14.5832C96.6261 17.8089 98.9492 19.6411 102.881 19.6411C106.813 19.6411 110.566 17.0602 112.353 13.1122H107.554C107.554 13.1122 106.149 15.7442 103.468 15.7442C101.655 15.7442 100.966 13.5764 102.345 10.66C103.724 7.74359 105.306 6.50506 107.221 6.50506C109.136 6.50641 109.341 7.97745 109.085 9.13848Z" fill="#353391"/>
</svg>
